<?xml version="1.0" standalone="no"?>
<!DOCTYPE svg PUBLIC "-//W3C//DTD SVG 20010904//EN"
 "http://www.w3.org/TR/2001/REC-SVG-20010904/DTD/svg10.dtd">
<svg version="1.0" xmlns="http://www.w3.org/2000/svg"
 width="476.000000pt" height="455.000000pt" viewBox="0 0 476.000000 455.000000"
 preserveAspectRatio="xMidYMid meet">

<g transform="translate(0.000000,455.000000) scale(0.100000,-0.100000)"
fill="#000000" stroke="none">
<path d="M2205 4409 c-848 -89 -1580 -706 -1808 -1524 -62 -219 -72 -300 -72
-575 0 -260 8 -331 51 -505 153 -613 562 -1119 1129 -1395 300 -147 582 -212
920 -212 342 -1 630 65 930 212 222 109 362 208 544 385 330 321 522 683 613
1155 19 99 22 149 22 355 1 265 -13 368 -75 585 -239 833 -966 1438 -1826
1520 -124 12 -312 11 -428 -1z m1236 -873 c190 -67 318 -257 344 -511 10 -103
14 -92 -338 -910 -102 -236 -214 -503 -251 -592 -80 -198 -113 -264 -181 -368
-60 -91 -141 -172 -206 -206 -36 -19 -59 -24 -129 -24 -100 0 -160 23 -248 96
-53 44 -166 174 -199 230 -10 16 -20 29 -23 29 -3 0 -23 -28 -45 -62 -55 -86
-144 -174 -201 -199 -56 -25 -125 -27 -177 -6 -48 20 -145 113 -201 192 -119
166 -281 493 -498 1005 -147 345 -162 396 -156 512 4 67 10 96 37 151 62 129
191 223 361 262 41 9 80 18 86 20 6 2 11 30 12 69 2 114 52 189 149 226 84 31
113 28 368 -40 99 -26 146 -33 265 -37 249 -10 458 27 820 142 128 41 132 42
250 43 76 1 108 -3 161 -22z"/>
<path d="M3185 3434 c-11 -3 -67 -20 -125 -39 -336 -106 -547 -145 -790 -145
-161 0 -290 18 -424 60 -105 32 -207 41 -245 21 -32 -18 -51 -64 -51 -126 l0
-55 33 0 c41 0 116 -20 198 -53 244 -98 478 -115 763 -57 192 40 296 16 342
-77 37 -76 18 -217 -51 -383 -49 -116 -341 -744 -447 -959 l-110 -224 59 -85
c70 -104 161 -197 228 -237 39 -23 62 -29 105 -29 152 0 258 139 430 564 60
149 191 455 348 815 180 415 214 505 214 575 0 165 -93 334 -224 405 -46 25
-65 29 -143 31 -49 2 -99 0 -110 -2z"/>
<path d="M1346 3014 c-134 -32 -251 -127 -281 -227 -33 -113 -21 -162 141
-545 355 -838 522 -1122 662 -1122 65 0 141 72 233 222 l37 60 -44 81 c-95
174 -216 444 -312 692 -103 265 -128 331 -176 463 -29 81 -75 202 -101 270
-54 138 -47 133 -159 106z"/>
<path d="M1617 2958 c14 -35 76 -200 138 -368 159 -428 252 -656 374 -913 83
-175 68 -177 159 14 74 154 129 271 351 752 112 242 142 325 144 400 1 51 -2
62 -22 78 -28 23 -90 25 -170 5 -86 -23 -273 -46 -363 -46 -152 0 -302 33
-523 114 -38 14 -80 26 -92 26 l-22 0 26 -62z"/>
</g>
</svg>
